<svg width="85" height="22" viewBox="0 0 85 22" fill="none" xmlns="http://www.w3.org/2000/svg">
<path d="M7.58398 13.4453L5.29883 15.9062V22H0.904297V0.671875H5.29883V10.3398L7.23242 7.68848L12.667 0.671875H18.0723L10.499 10.1494L18.292 22H13.0625L7.58398 13.4453ZM31.9883 17.6055H24.2832L22.8184 22H18.1455L26.085 0.671875H30.1572L38.1406 22H33.4678L31.9883 17.6055ZM25.4697 14.0459H30.8018L28.1211 6.0625L25.4697 14.0459ZM45.875 0.671875L51.3535 16.1406L56.8027 0.671875H62.5742V22H58.165V16.1699L58.6045 6.10645L52.8477 22H49.8301L44.0879 6.12109L44.5273 16.1699V22H40.1328V0.671875H45.875ZM78.7168 17.6055H71.0117L69.5469 22H64.874L72.8135 0.671875H76.8857L84.8691 22H80.1963L78.7168 17.6055ZM72.1982 14.0459H77.5303L74.8496 6.0625L72.1982 14.0459Z" fill="white"/>
</svg>
